<svg data-logo="logo" xmlns="http://www.w3.org/2000/svg" viewBox="0 0 285 42">
            <g style="opacity: 1;" id="logogram" transform="translate(0, 1) rotate(0)"><path d="M20.0642 28C15.6459 28 12.0642 24.4183 12.0642 20C12.0642 15.5817 15.6459 12 20.0642 12C24.4825 12 28.0642 15.5817 28.0642 20C28.0642 24.4183 24.4825 28 20.0642 28Z" fill="#51A3EE"></path><path d="M4.56593 22.7328C2.2476 23.1416 0.658502 25.3811 1.54844 27.5606C2.79089 30.6032 4.77306 33.3142 7.34281 35.4326C11.0174 38.4615 15.652 40.08 20.4134 39.997C25.1747 39.9139 29.7502 38.1346 33.3168 34.9791C35.811 32.7724 37.6974 29.9939 38.833 26.9098C39.6463 24.7005 37.9799 22.5179 35.6487 22.1903C33.3176 21.8627 31.2246 23.5595 30.0731 25.6128C29.449 26.7258 28.6387 27.7355 27.668 28.5943C25.6216 30.4048 22.9964 31.4256 20.2647 31.4734C17.5328 31.521 14.8736 30.5924 12.7654 28.8544C11.7652 28.03 10.9203 27.0492 10.2577 25.9587C9.03527 23.9468 6.88426 22.324 4.56593 22.7328Z" fill="#51A3EE"></path><path d="M39.9096 22.4993C40.0117 21.6805 40.0642 20.8464 40.0642 20C40.0642 8.95431 31.11 0 20.0642 0C9.01852 0 0.064209 8.95431 0.064209 20C0.064209 21.0863 0.150809 22.1523 0.317489 23.1916C1.23613 21.934 2.66989 21.0363 4.21856 20.7632C5.89414 20.4677 7.41699 20.8741 8.70457 21.6337C8.62851 21.1001 8.58915 20.5547 8.58915 20C8.58915 13.6625 13.7267 8.52494 20.0642 8.52494C26.4017 8.52494 31.5393 13.6625 31.5393 20C31.5393 20.4179 31.5169 20.8305 31.4734 21.2368C32.7338 20.4324 34.2418 19.9728 35.927 20.2097C37.4838 20.4285 38.9476 21.2752 39.9096 22.4993Z" fill="#0E4F8B"></path></g>
            <g style="opacity: 1;" id="logotype" transform="translate(47, 7.5)"><path fill="#103e7a" d="M15.70 1.01L15.70 1.01Q16.40 1.01 17.43 1.08Q18.46 1.15 19.56 1.27Q20.66 1.39 21.49 1.52Q22.31 1.64 22.63 1.78L22.63 1.78L22.21 6.50L21.86 6.50Q21.86 4.68 20.51 3.58Q19.16 2.48 16.92 2.48L16.92 2.48Q14.89 2.48 13.65 3.46Q12.41 4.44 12.34 5.84L12.34 5.84Q12.30 6.89 13 7.66Q13.70 8.43 14.79 9.09L14.79 9.09L21.47 13.43Q23.08 14.34 23.90 15.81Q24.73 17.28 24.62 19.24L24.62 19.24Q24.45 22.68 22.00 24.58Q19.55 26.49 15.35 26.49L15.35 26.49Q13.80 26.49 12.35 26.23Q10.90 25.96 9.78 25.49Q8.66 25.02 8.00 24.36L8.00 24.36Q7.71 23.59 7.75 22.50Q7.79 21.41 8.08 20.29Q8.38 19.17 8.84 18.44L8.84 18.44L9.15 18.44Q9.01 20.23 9.80 21.75Q10.59 23.27 12.11 24.16Q13.63 25.05 15.73 25.02L15.73 25.02Q18.04 24.98 19.30 23.85Q20.56 22.71 20.56 21.10L20.56 21.10Q20.56 20.02 19.91 19.14Q19.27 18.27 17.80 17.46L17.80 17.46L11.67 13.40Q9.82 12.35 8.97 10.70Q8.13 9.06 8.35 7.13L8.35 7.13Q8.48 5.31 9.39 3.93Q10.30 2.55 11.90 1.78Q13.49 1.01 15.70 1.01ZM18.46 1.36L22.66 1.36L22.59 2.09L18.46 2.09L18.46 1.36ZM35.23 16.20L38.97 12.80L46.81 23.66Q47.48 24.63 48.21 25.14Q48.95 25.65 49.93 25.68L49.93 25.68L49.93 26L47.23 26Q46.88 26 46.08 25.96Q45.27 25.93 44.24 25.70Q43.20 25.48 42.16 24.91Q41.11 24.36 40.30 23.30L40.30 23.30Q40.13 23.06 39.71 22.46Q39.29 21.87 38.71 21.06Q38.13 20.26 37.52 19.42Q36.91 18.58 36.38 17.84Q35.86 17.11 35.54 16.66Q35.23 16.20 35.23 16.20L35.23 16.20ZM43.52 5.21L46.39 5.21L37.26 15.99L35.23 16.20L43.52 5.21ZM48.39 4.96L48.53 4.96L48.53 5.31L48.39 5.31Q47.41 5.31 46.53 5.70Q45.66 6.08 45.09 6.75L45.09 6.75L42.40 6.68Q42.79 6.19 42.54 5.75Q42.30 5.31 41.70 5.31L41.70 5.31L41.39 5.31L41.39 4.96L48.39 4.96ZM29.17 4.96L34.21 4.96L34.21 26L29.17 26L29.17 4.96ZM29.17 23.80L29.24 23.80L29.24 26L26.86 26L26.86 25.65Q26.86 25.65 27.02 25.65Q27.18 25.65 27.21 25.65L27.21 25.65Q28.02 25.65 28.58 25.11Q29.14 24.57 29.17 23.80L29.17 23.80ZM34.11 26L34.11 23.80L34.21 23.80Q34.21 24.57 34.77 25.11Q35.33 25.65 36.14 25.65L36.14 25.65Q36.17 25.65 36.34 25.65Q36.52 25.65 36.52 25.65L36.52 25.65L36.52 26L34.11 26ZM34.21 7.20L34.11 7.20L34.11 4.96L36.52 4.96L36.52 5.31Q36.48 5.31 36.33 5.31Q36.17 5.31 36.14 5.31L36.14 5.31Q35.33 5.31 34.77 5.86Q34.21 6.40 34.21 7.20L34.21 7.20ZM29.24 4.96L29.24 7.20L29.17 7.20Q29.14 6.40 28.58 5.86Q28.02 5.31 27.21 5.31L27.21 5.31Q27.21 5.31 27.04 5.31Q26.86 5.31 26.83 5.31L26.83 5.31L26.83 4.96L29.24 4.96ZM49.75 5.03L55.49 5.03L62.07 16.41L57.42 16.93L49.75 5.03ZM57.24 16.55L62.28 16.48L62.28 26L57.24 26L57.24 16.55ZM60.29 16.86L67.25 5.03L69.81 5.03L61.93 17.18L60.29 16.86ZM68.51 7.06L65.99 7.17Q66.38 6.50 65.99 5.93Q65.61 5.35 64.94 5.35L64.94 5.35Q64.94 5.35 64.73 5.35Q64.52 5.35 64.52 5.35L64.52 5.35L64.52 5.00L72.05 5.00L72.05 5.35L71.59 5.35Q70.65 5.35 69.82 5.86Q69 6.36 68.51 7.06L68.51 7.06ZM56.72 7.17L56.72 7.17L51.05 7.06Q50.55 6.33 49.75 5.84Q48.95 5.35 47.97 5.35L47.97 5.35L47.55 5.35L47.55 5.00L58.19 5.00L58.19 5.35Q58.19 5.35 57.99 5.35Q57.80 5.35 57.80 5.35L57.80 5.35Q57.10 5.35 56.73 5.94Q56.37 6.54 56.72 7.17ZM57.24 23.80L57.35 23.80L57.35 26L54.86 26L54.86 25.65Q54.90 25.65 55.09 25.65Q55.28 25.65 55.28 25.65L55.28 25.65Q56.09 25.65 56.65 25.11Q57.21 24.57 57.24 23.80L57.24 23.80ZM62.21 26L62.21 23.80L62.28 23.80Q62.32 24.57 62.89 25.11Q63.47 25.65 64.24 25.65L64.24 25.65Q64.24 25.65 64.45 25.65Q64.66 25.65 64.66 25.65L64.66 25.65L64.66 26L62.21 26ZM95.35 15.78L95.63 15.78L95.95 21.80Q95.18 23.09 93.88 24.14Q92.59 25.20 90.66 25.84Q88.74 26.49 86.11 26.49L86.11 26.49Q81.84 26.45 78.64 24.93Q75.44 23.41 73.69 20.57Q71.94 17.74 71.94 13.71L71.94 13.71Q71.94 9.79 73.66 6.94Q75.37 4.09 78.57 2.55Q81.77 1.01 86.22 1.01L86.22 1.01Q89.02 1.01 91.24 1.57Q93.47 2.13 94.94 2.93L94.94 2.93L95.00 8.92L94.69 8.92Q93.75 5.45 91.61 3.97Q89.47 2.48 86.60 2.48L86.60 2.48Q83.80 2.48 81.81 3.84Q79.81 5.21 78.73 7.69Q77.64 10.18 77.64 13.64L77.64 13.64Q77.64 17.11 78.68 19.63Q79.71 22.15 81.62 23.55Q83.52 24.95 86.11 25.02L86.11 25.02Q88.81 25.02 90.66 24.14Q92.52 23.27 93.66 21.24Q94.80 19.21 95.35 15.78L95.35 15.78ZM110.72 4.54L110.72 4.54Q113.52 4.54 115.79 5.30Q118.07 6.05 119.71 7.48Q121.36 8.92 122.25 10.95Q123.14 12.98 123.14 15.53L123.14 15.53Q123.14 18.05 122.25 20.07Q121.36 22.08 119.71 23.52Q118.07 24.95 115.79 25.70Q113.52 26.45 110.72 26.45L110.72 26.45Q107.95 26.45 105.68 25.70Q103.40 24.95 101.76 23.52Q100.11 22.08 99.24 20.07Q98.36 18.05 98.36 15.53L98.36 15.53Q98.36 12.98 99.24 10.95Q100.11 8.92 101.76 7.48Q103.40 6.05 105.68 5.30Q107.95 4.54 110.72 4.54ZM110.72 25.09L110.72 25.09Q112.85 25.09 114.45 23.92Q116.04 22.75 116.90 20.61Q117.75 18.48 117.75 15.53L117.75 15.53Q117.75 12.56 116.90 10.41Q116.04 8.25 114.45 7.08Q112.85 5.91 110.72 5.91L110.72 5.91Q108.62 5.91 107.04 7.08Q105.47 8.25 104.59 10.41Q103.72 12.56 103.72 15.53L103.72 15.53Q103.72 18.48 104.59 20.61Q105.47 22.75 107.04 23.92Q108.62 25.09 110.72 25.09ZM136.20 23.80L148.28 4.54L148.56 8.15L139.14 23.09Q139.14 23.09 138.82 23.67Q138.51 24.25 138.21 25.05Q137.91 25.86 137.88 26.66L137.88 26.66L137.56 26.66L136.20 23.80ZM126.08 23.76L126.75 23.76L126.75 26L123.32 26L123.32 25.65Q123.32 25.65 123.55 25.65Q123.77 25.65 123.77 25.65L123.77 25.65Q124.65 25.65 125.30 25.16Q125.94 24.67 126.08 23.76L126.08 23.76ZM128.08 24.25L128.29 24.25Q128.25 24.63 128.52 25.14Q128.78 25.65 129.48 25.65L129.48 25.65L129.97 25.65L129.97 26L127.87 26L128.08 24.25ZM125.80 26L128.81 4.54L129.09 4.54L130.28 7.90L128.08 26L125.80 26ZM128.25 12.56L129.09 4.54L139.45 20.05L137.56 26.66L128.25 12.56ZM148.28 4.54L148.59 4.54L151.67 26L146.31 26L144.60 13.22L148.28 4.54ZM150.69 26L150.69 23.76L151.35 23.76Q151.53 24.67 152.18 25.16Q152.82 25.65 153.63 25.65L153.63 25.65Q153.63 25.65 153.88 25.65Q154.12 25.65 154.12 25.65L154.12 25.65L154.12 26L150.69 26ZM146.07 24.25L146.07 24.25L146.28 24.25L146.49 26L144.39 26L144.39 25.65L144.88 25.65Q145.65 25.65 145.89 25.14Q146.14 24.63 146.07 24.25ZM161.47 5.00L161.47 5.00L164.83 5.00Q167.66 5.00 169.41 5.77Q171.16 6.54 172.04 7.85Q172.91 9.16 172.99 10.81L172.99 10.81Q173.06 12.87 172.16 14.41Q171.27 15.95 169.77 16.76Q168.26 17.56 166.47 17.48Q164.69 17.39 162.94 16.23L162.94 16.23L162.94 15.92Q162.94 15.92 163.31 15.92Q163.68 15.92 164.24 15.80Q164.80 15.67 165.41 15.32Q166.02 14.97 166.58 14.27Q167.14 13.57 167.46 12.38L167.46 12.38Q167.56 11.96 167.61 11.46Q167.66 10.95 167.63 10.56L167.63 10.56Q167.59 8.64 166.49 7.50Q165.39 6.36 163.43 6.36L163.43 6.36L161.78 6.36Q161.78 6.36 161.72 6.03Q161.65 5.70 161.56 5.35Q161.47 5.00 161.47 5.00ZM156.81 5.00L161.85 5.00L161.85 26L156.81 26L156.81 5.00ZM156.81 23.80L156.92 23.80L157.03 26L154.50 26L154.50 25.65Q154.54 25.65 154.72 25.65Q154.89 25.65 154.93 25.65L154.93 25.65Q155.69 25.65 156.25 25.11Q156.81 24.57 156.81 23.80L156.81 23.80ZM157.03 5.00L156.88 7.17L156.81 7.17Q156.81 6.36 156.25 5.86Q155.69 5.35 154.93 5.35L154.93 5.35Q154.85 5.35 154.70 5.35Q154.54 5.35 154.47 5.35L154.47 5.35L154.47 5.00L157.03 5.00ZM161.61 26L161.78 23.80L161.85 23.80Q161.89 24.57 162.41 25.11Q162.94 25.65 163.75 25.65L163.75 25.65Q163.81 25.65 163.97 25.65Q164.13 25.65 164.16 25.65L164.16 25.65L164.16 26L161.61 26ZM176.31 5.00L181.35 5.00L181.35 18.20Q181.35 21.41 182.84 23.23Q184.32 25.05 186.98 25.05L186.98 25.05Q189.75 25.05 191.27 23.34Q192.79 21.63 192.83 18.58L192.83 18.58L192.83 5.00L195.14 5.00L195.14 18.37Q195.14 22.11 192.85 24.29Q190.55 26.45 186.35 26.45L186.35 26.45Q181.31 26.45 178.81 24.30Q176.31 22.15 176.31 18.41L176.31 18.41L176.31 5.00ZM174.21 5.00L176.38 5.00L176.38 6.82L176.31 6.82Q176.27 6.15 175.82 5.73Q175.36 5.31 174.70 5.31L174.70 5.31Q174.70 5.31 174.45 5.31Q174.21 5.31 174.21 5.31L174.21 5.31L174.21 5.00ZM181.28 5.00L183.41 5.00L183.41 5.31Q183.41 5.31 183.17 5.31Q182.92 5.31 182.92 5.31L182.92 5.31Q182.26 5.31 181.80 5.73Q181.35 6.15 181.35 6.82L181.35 6.82L181.28 6.82L181.28 5.00ZM190.76 5.00L192.90 5.00L192.90 6.82L192.83 6.82Q192.79 6.15 192.34 5.73Q191.88 5.31 191.25 5.31L191.25 5.31Q191.25 5.31 191.01 5.31Q190.76 5.31 190.76 5.31L190.76 5.31L190.76 5.00ZM195.07 5.00L197.20 5.00L197.20 5.31Q197.20 5.31 196.98 5.31Q196.75 5.31 196.75 5.31L196.75 5.31Q196.08 5.31 195.61 5.73Q195.14 6.15 195.14 6.82L195.14 6.82L195.07 6.82L195.07 5.00ZM205.57 5.10L210.65 5.10L210.65 26L205.57 26L205.57 5.10ZM197.97 4.96L218.24 4.96L218.24 6.36L197.97 6.36L197.97 4.96ZM214.71 6.26L218.24 6.26L218.24 9.97L217.89 9.97L217.89 9.65Q217.93 8.15 217.07 7.27Q216.21 6.40 214.71 6.36L214.71 6.36L214.71 6.26ZM218.24 4.44L218.24 4.44L218.24 5.31L214.56 4.96Q215.23 4.96 216 4.88Q216.77 4.79 217.40 4.67Q218.03 4.54 218.24 4.44ZM205.57 23.80L205.64 23.80L205.64 26L203.29 26L203.29 25.65Q203.29 25.65 203.49 25.65Q203.68 25.65 203.68 25.65L203.68 25.65Q204.45 25.65 204.99 25.11Q205.53 24.57 205.57 23.80L205.57 23.80ZM210.54 26L210.54 23.80L210.65 23.80Q210.65 24.57 211.21 25.11Q211.76 25.65 212.57 25.65L212.57 25.65Q212.57 25.65 212.76 25.65Q212.96 25.65 212.96 25.65L212.96 25.65L212.96 26L210.54 26ZM197.97 6.26L201.54 6.26L201.54 6.36Q200.00 6.40 199.18 7.27Q198.36 8.15 198.36 9.65L198.36 9.65L198.36 9.97L197.97 9.97L197.97 6.26ZM197.97 5.31L197.97 4.44Q198.29 4.51 198.90 4.65Q199.51 4.79 200.27 4.88Q201.02 4.96 201.65 4.96L201.65 4.96L197.97 5.31ZM221.91 5.00L226.95 5.00L226.95 26L221.91 26L221.91 5.00ZM226.88 24.60L235.14 24.60L235.95 26L226.88 26L226.88 24.60ZM226.88 14.90L233.95 14.90L233.95 16.30L226.88 16.30L226.88 14.90ZM226.88 5.00L235.53 5.00L235.53 6.40L226.88 6.40L226.88 5.00ZM237.07 19.56L237.38 19.56L236.06 26L230 26L231.09 24.60Q232.59 24.60 233.76 23.99Q234.94 23.38 235.78 22.24Q236.62 21.10 237.07 19.56L237.07 19.56ZM230.94 16.23L233.95 16.23L233.95 19.31L233.60 19.31L233.60 19.04Q233.60 17.88 232.89 17.09Q232.17 16.30 230.94 16.30L230.94 16.30L230.94 16.23ZM233.60 11.89L233.95 11.89L233.95 14.97L230.94 14.97L230.94 14.90Q232.17 14.87 232.89 14.08Q233.60 13.29 233.60 12.14L233.60 12.14L233.60 11.89ZM232.00 6.33L235.53 6.33L235.53 10.04L235.18 10.04L235.18 9.72Q235.18 8.18 234.36 7.31Q233.53 6.43 232.00 6.40L232.00 6.40L232.00 6.33ZM235.53 4.47L235.53 4.47L235.53 5.31L231.85 5.00Q232.87 5.00 233.99 4.81Q235.11 4.61 235.53 4.47ZM221.91 23.80L222.02 23.80L222.16 26L219.57 26L219.57 25.65Q219.57 25.65 219.78 25.65Q219.99 25.65 220.03 25.65L220.03 25.65Q220.79 25.65 221.35 25.11Q221.91 24.57 221.91 23.80L221.91 23.80ZM222.16 5.00L222.02 7.20L221.91 7.20Q221.91 6.40 221.35 5.87Q220.79 5.35 220.03 5.35L220.03 5.35Q219.99 5.35 219.78 5.35Q219.57 5.35 219.57 5.35L219.57 5.35L219.57 5.00L222.16 5.00Z"></path></g>
            
          </svg>