
          <svg data-logo="logo" xmlns="http://www.w3.org/2000/svg" viewBox="0 0 245 43">
            <g id="logogram" transform="translate(0, 1) rotate(0)"><path d="M37.4552 2.39882C38.3804 1.43634 39.6368 0.89563 40.9453 0.89563C46.8318 0.89563 52.3794 0.895633 57.8425 0.895644C68.8303 0.895667 74.3325 14.7158 66.5629 22.7986L49.639 40.4046C48.862 41.2129 47.5335 40.6405 47.5335 39.4974V23.9906L49.4894 21.9559C51.0433 20.3393 49.9427 17.5753 47.7452 17.5753H22.8667L37.4552 2.39882Z" fill="#3A04FF"/><path d="M32.945 39.1672C32.0198 40.1296 30.7634 40.6703 29.455 40.6703C23.5684 40.6703 18.0208 40.6703 12.5577 40.6703C1.56991 40.6703 -3.93229 26.8501 3.83728 18.7674L20.7612 1.16133C21.5382 0.353051 22.8667 0.925506 22.8667 2.06858L22.8667 17.5753L20.9109 19.6101C19.3569 21.2266 20.4575 23.9907 22.6551 23.9907L47.5335 23.9906L32.945 39.1672Z" fill="#3A04FF"/></g>
            <g id="logotype" transform="translate(77, 9)"><path fill="#110051" d="M20.18 25.35L20.18 25.35Q16.33 25.35 13.58 23.79Q10.83 22.23 9.36 19.38Q7.89 16.53 7.89 12.64L7.89 12.64Q7.89 8.76 9.36 5.92Q10.83 3.09 13.58 1.53Q16.33-0.03 20.18-0.03L20.18-0.03Q22.66-0.03 24.88 0.74Q27.11 1.51 28.54 2.95L28.54 2.95L27.07 6.52Q25.50 5.19 23.85 4.58Q22.21 3.96 20.32 3.96L20.32 3.96Q16.57 3.96 14.61 6.22Q12.65 8.48 12.65 12.64L12.65 12.64Q12.65 16.81 14.61 19.09Q16.57 21.36 20.32 21.36L20.32 21.36Q22.21 21.36 23.85 20.75Q25.50 20.13 27.07 18.80L27.07 18.80L28.54 22.38Q27.11 23.77 24.88 24.56Q22.66 25.35 20.18 25.35ZM36.59 25.35L36.59 25.35Q33.55 25.35 32.09 23.69Q30.64 22.02 30.64 18.80L30.64 18.80L30.64 0.32L35.02 0.32L35.02 18.59Q35.02 19.61 35.31 20.33Q35.61 21.04 36.21 21.39Q36.80 21.75 37.68 21.75L37.68 21.75Q38.06 21.75 38.45 21.71Q38.83 21.68 39.18 21.57L39.18 21.57L39.11 25.04Q38.48 25.18 37.87 25.26Q37.26 25.35 36.59 25.35ZM48.04 25.35L48.04 25.35Q45.38 25.35 43.42 24.27Q41.46 23.18 40.37 21.17Q39.29 19.16 39.29 16.42L39.29 16.42Q39.29 13.69 40.37 11.70Q41.46 9.70 43.42 8.62Q45.38 7.53 48.04 7.53L48.04 7.53Q50.70 7.53 52.66 8.62Q54.62 9.70 55.70 11.70Q56.79 13.69 56.79 16.42L56.79 16.42Q56.79 19.16 55.70 21.17Q54.62 23.18 52.66 24.27Q50.70 25.35 48.04 25.35ZM48.04 22.02L48.04 22.02Q50.00 22.02 51.19 20.61Q52.38 19.19 52.38 16.39L52.38 16.39Q52.38 13.62 51.19 12.24Q50.00 10.86 48.04 10.86L48.04 10.86Q46.08 10.86 44.89 12.24Q43.70 13.62 43.70 16.39L43.70 16.39Q43.70 19.19 44.89 20.61Q46.08 22.02 48.04 22.02ZM65.19 25.35L65.19 25.35Q63.05 25.35 61.65 24.56Q60.25 23.77 59.57 22.20Q58.89 20.63 58.89 18.28L58.89 18.28L58.89 7.88L63.26 7.88L63.26 18.35Q63.26 19.54 63.59 20.34Q63.93 21.15 64.61 21.54Q65.29 21.92 66.34 21.92L66.34 21.92Q67.53 21.92 68.42 21.38Q69.32 20.84 69.82 19.84Q70.33 18.84 70.33 17.51L70.33 17.51L70.33 7.88L74.71 7.88L74.71 25L70.44 25L70.44 21.43L70.93 21.43Q70.19 23.32 68.70 24.34Q67.22 25.35 65.19 25.35ZM84.44 25.35L84.44 25.35Q82.20 25.35 80.50 24.27Q78.80 23.18 77.86 21.17Q76.91 19.16 76.91 16.42L76.91 16.42Q76.91 13.66 77.86 11.68Q78.80 9.70 80.50 8.62Q82.20 7.53 84.44 7.53L84.44 7.53Q86.57 7.53 88.16 8.58Q89.76 9.63 90.32 11.35L90.32 11.35L89.93 11.35L89.93 0.32L94.31 0.32L94.31 25L90.04 25L90.04 21.36L90.35 21.36Q89.83 23.18 88.22 24.27Q86.61 25.35 84.44 25.35ZM85.66 22.02L85.66 22.02Q87.62 22.02 88.81 20.61Q90.00 19.19 90.00 16.42L90.00 16.42Q90.00 13.62 88.81 12.24Q87.62 10.86 85.66 10.86L85.66 10.86Q83.70 10.86 82.51 12.24Q81.32 13.62 81.32 16.42L81.32 16.42Q81.32 19.19 82.51 20.61Q83.70 22.02 85.66 22.02ZM102.04 25L97.88 25L97.88 0.32L101.24 0.32L115.41 18.73L114.50 18.73L114.50 0.32L118.67 0.32L118.67 25L115.34 25L101.17 6.55L102.04 6.55L102.04 25ZM130.67 25.35L130.67 25.35Q127.77 25.35 125.67 24.27Q123.57 23.18 122.43 21.18Q121.29 19.19 121.29 16.46L121.29 16.46Q121.29 13.80 122.39 11.80Q123.50 9.81 125.44 8.67Q127.38 7.53 129.87 7.53L129.87 7.53Q132.31 7.53 134.06 8.58Q135.81 9.63 136.78 11.56Q137.74 13.48 137.74 16.14L137.74 16.14L137.74 17.44L124.83 17.44L124.83 14.92L134.66 14.92L134.10 15.44Q134.10 13.06 133.05 11.79Q132 10.51 130.04 10.51L130.04 10.51Q128.57 10.51 127.54 11.19Q126.51 11.87 125.96 13.12Q125.42 14.36 125.42 16.07L125.42 16.07L125.42 16.32Q125.42 18.24 126.02 19.50Q126.61 20.77 127.80 21.39Q128.99 22.02 130.74 22.02L130.74 22.02Q132.18 22.02 133.61 21.59Q135.05 21.15 136.24 20.20L136.24 20.20L137.46 23.14Q136.24 24.16 134.38 24.75Q132.53 25.35 130.67 25.35ZM146.07 25.35L146.07 25.35Q144.63 25.35 143.29 25.11Q141.94 24.86 140.82 24.42Q139.70 23.98 138.86 23.32L138.86 23.32L139.98 20.45Q140.85 21.01 141.87 21.43Q142.88 21.85 143.97 22.06Q145.06 22.27 146.10 22.27L146.10 22.27Q147.78 22.27 148.61 21.69Q149.43 21.11 149.43 20.17L149.43 20.17Q149.43 19.36 148.89 18.93Q148.34 18.49 147.26 18.28L147.26 18.28L143.76 17.61Q141.59 17.20 140.45 16.02Q139.31 14.85 139.31 12.99L139.31 12.99Q139.31 11.31 140.24 10.09Q141.17 8.86 142.81 8.20Q144.46 7.53 146.59 7.53L146.59 7.53Q147.82 7.53 148.97 7.76Q150.13 7.99 151.16 8.43Q152.19 8.86 152.97 9.56L152.97 9.56L151.78 12.43Q151.11 11.87 150.24 11.47Q149.36 11.07 148.43 10.84Q147.50 10.61 146.63 10.61L146.63 10.61Q144.91 10.61 144.09 11.21Q143.27 11.80 143.27 12.78L143.27 12.78Q143.27 13.52 143.76 14.01Q144.25 14.50 145.27 14.67L145.27 14.67L148.77 15.34Q151.04 15.76 152.21 16.88Q153.38 18 153.38 19.89L153.38 19.89Q153.38 21.61 152.47 22.83Q151.56 24.05 149.92 24.70Q148.28 25.35 146.07 25.35ZM163.15 25.35L163.15 25.35Q159.72 25.35 158.04 23.63Q156.36 21.92 156.36 18.63L156.36 18.63L156.36 11.17L153.07 11.17L153.07 7.88L156.36 7.88L156.36 2.77L160.73 2.77L160.73 7.88L165.91 7.88L165.91 11.17L160.73 11.17L160.73 18.38Q160.73 20.06 161.47 20.91Q162.20 21.75 163.85 21.75L163.85 21.75Q164.34 21.75 164.87 21.62Q165.39 21.50 165.95 21.36L165.95 21.36L166.62 24.58Q165.98 24.93 165.02 25.14Q164.06 25.35 163.15 25.35Z"/></g>
            
          </svg>
        