<svg viewBox="0 0 227 42" xmlns="http://www.w3.org/2000/svg" data-logo="logo">
            <g transform="translate(0, 1) rotate(0)" id="logogram" style="opacity: 1;"><path fill="#726BEA" d="M0.5 36.0001C7.12744 36.0001 12.5 30.6274 12.5 24.0001C12.5 17.3726 7.12744 12 0.5 12V20.4C2.48821 20.4 4.09998 22.0118 4.09998 24.0001C4.09998 25.9883 2.48821 27.6001 0.5 27.6001V36.0001Z"></path><path fill="#A5B4FC" d="M40.5 16C38.4494 15.3504 36.2657 15 34 15C22.1258 15 12.5 24.6259 12.5 36.5C12.5 37.6918 12.597 38.861 12.7835 40H26.1421C25.6652 38.9309 25.4001 37.7464 25.4001 36.5C25.4001 31.7503 29.2504 27.9 34 27.9C36.5959 27.9 38.9231 29.0501 40.5 30.8687V16Z"></path><path fill="#4F46E5" d="M2.60983 0C3.60472 8.9999 11.2349 16.0001 20.5 16.0001C29.765 16.0001 37.3952 8.9999 38.3901 0H25.5174C24.7227 1.99222 22.7757 3.39999 20.5 3.39999C18.2242 3.39999 16.2773 1.99222 15.4824 0H2.60983Z"></path></g>
            <g transform="translate(47, 8)" id="logotype" style="opacity: 1;"><path d="M21.61 15.53L13.63 15.53L14.16 14.55L21.37 14.55L21.61 15.53ZM31.10 25.58L31.10 25.58Q31.27 25.58 31.27 25.79Q31.27 26 31.10 26L31.10 26Q30.05 26 28.91 25.93Q27.77 25.86 26.72 25.86L26.72 25.86Q25.53 25.86 24.66 25.93Q23.78 26 22.70 26L22.70 26Q22.56 26 22.56 25.79Q22.56 25.58 22.70 25.58L22.70 25.58Q24.13 25.58 24.36 25.00Q24.59 24.43 23.71 22.71L23.71 22.71L16.61 8.67L18.32 5.66L11.36 21.03Q10.41 23.13 11.32 24.36Q12.23 25.58 14.19 25.58L14.19 25.58Q14.37 25.58 14.37 25.79Q14.37 26 14.19 26L14.19 26Q13.14 26 12.27 25.93Q11.39 25.86 10.06 25.86L10.06 25.86Q8.70 25.86 7.87 25.93Q7.05 26 5.86 26L5.86 26Q5.72 26 5.72 25.79Q5.72 25.58 5.86 25.58L5.86 25.58Q6.80 25.58 7.49 25.18Q8.17 24.77 8.85 23.71Q9.54 22.64 10.41 20.68L10.41 20.68L18.01 3.98Q18.04 3.88 18.32 3.86Q18.60 3.84 18.64 3.98L18.64 3.98L27.39 21.20Q28.23 22.85 28.84 23.81Q29.45 24.77 29.99 25.18Q30.54 25.58 31.10 25.58ZM39.29 26.42L39.29 26.42Q37.01 26.42 35.42 25.48Q33.83 24.53 33.00 22.97Q32.18 21.41 32.18 19.66L32.18 19.66Q32.18 17.60 33.23 15.90Q34.28 14.20 36.08 13.19Q37.89 12.17 40.16 12.17L40.16 12.17Q42.33 12.17 43.48 13.10Q44.64 14.03 44.64 15.64L44.64 15.64Q44.64 16.02 44.57 16.34Q44.50 16.66 44.26 16.66L44.26 16.66L40.90 16.66Q40.97 15.01 40.51 13.94Q40.06 12.87 38.87 12.87L38.87 12.87Q37.47 12.87 36.59 14.33Q35.72 15.78 35.72 18.20L35.72 18.20Q35.72 20.16 36.34 21.63Q36.98 23.09 38.17 23.90Q39.36 24.70 41.04 24.70L41.04 24.70Q41.88 24.70 42.84 24.46Q43.80 24.21 44.57 23.73L44.57 23.73Q44.64 23.66 44.76 23.80Q44.89 23.93 44.82 24.04L44.82 24.04Q43.52 25.34 42.17 25.88Q40.83 26.42 39.29 26.42ZM42.12 16.66L34.49 16.73L34.46 16.06L42.12 15.88L42.12 16.66ZM52.13 26.42L52.13 26.42Q51.29 26.42 50.43 26.14Q49.58 25.86 49.00 25.16Q48.42 24.46 48.42 23.20L48.42 23.20L48.42 15.43Q48.42 14.69 48.25 14.27Q48.07 13.85 47.69 13.68Q47.30 13.50 46.64 13.50L46.64 13.50Q46.50 13.50 46.50 13.19Q46.50 12.87 46.64 12.87L46.64 12.87Q48.42 12.80 49.54 12.09Q50.66 11.37 51.22 9.97L51.22 9.97Q51.29 9.83 51.52 9.83Q51.75 9.83 51.75 9.97L51.75 9.97L51.75 22.04Q51.75 23.45 52.46 24.04Q53.18 24.63 54.23 24.63L54.23 24.63Q55.04 24.63 55.75 24.30Q56.47 23.97 56.96 23.59L56.96 23.59Q57.07 23.48 57.22 23.64Q57.38 23.80 57.24 23.90L57.24 23.90Q55.95 25.20 54.74 25.81Q53.53 26.42 52.13 26.42ZM56.16 14.27L56.16 14.27Q54.72 13.96 53.37 13.84Q52.03 13.71 50.52 13.71L50.52 13.71L50.52 12.80Q51.96 12.80 53.34 12.70Q54.72 12.59 56.30 12.45L56.30 12.45Q56.37 12.45 56.45 12.72Q56.54 12.98 56.54 13.29L56.54 13.29Q56.54 13.64 56.42 13.98Q56.30 14.31 56.16 14.27ZM58.19 26L58.19 26Q58.12 26 58.12 25.79Q58.12 25.58 58.19 25.58L58.19 25.58Q59.27 25.58 59.67 25.07Q60.08 24.57 60.08 23.16L60.08 23.16L60.08 5.38Q60.08 4.19 59.87 3.65Q59.66 3.11 59.06 3.11L59.06 3.11Q58.57 3.11 57.73 3.49L57.73 3.49Q57.63 3.53 57.52 3.32Q57.42 3.11 57.48 3.07L57.48 3.07L62.60 0.66Q62.67 0.62 62.70 0.62Q62.73 0.62 62.77 0.62L62.77 0.62Q62.95 0.62 63.14 0.78Q63.33 0.94 63.33 1.08L63.33 1.08L63.33 23.16Q63.33 24.57 63.73 25.07Q64.14 25.58 65.22 25.58L65.22 25.58Q65.36 25.58 65.36 25.79Q65.36 26 65.22 26L65.22 26Q64.52 26 63.63 25.96Q62.73 25.93 61.72 25.93L61.72 25.93Q60.71 25.93 59.80 25.96Q58.89 26 58.19 26ZM67.60 26L67.60 26Q67.53 26 67.53 25.79Q67.53 25.58 67.60 25.58L67.60 25.58Q68.69 25.58 69.09 25.07Q69.49 24.57 69.49 23.16L69.49 23.16L69.49 18.13Q69.49 14.41 66.62 14.41L66.62 14.41Q65.57 14.41 64.47 14.94Q63.37 15.46 62.73 16.38L62.73 16.38L62.53 15.95Q63.75 14.20 65.29 13.14Q66.83 12.07 68.65 12.07L68.65 12.07Q70.61 12.07 71.68 13.29Q72.75 14.52 72.75 16.45L72.75 16.45L72.75 23.16Q72.75 24.57 73.15 25.07Q73.55 25.58 74.64 25.58L74.64 25.58Q74.78 25.58 74.78 25.79Q74.78 26 74.64 26L74.64 26Q73.94 26 73.04 25.96Q72.15 25.93 71.14 25.93L71.14 25.93Q70.12 25.93 69.21 25.96Q68.30 26 67.60 26ZM83.49 26.42L83.49 26.42Q81.22 26.42 79.62 25.48Q78.03 24.53 77.21 22.97Q76.39 21.41 76.39 19.66L76.39 19.66Q76.39 17.60 77.44 15.90Q78.48 14.20 80.29 13.19Q82.09 12.17 84.37 12.17L84.37 12.17Q86.53 12.17 87.69 13.10Q88.84 14.03 88.84 15.64L88.84 15.64Q88.84 16.02 88.78 16.34Q88.70 16.66 88.46 16.66L88.46 16.66L85.10 16.66Q85.17 15.01 84.72 13.94Q84.26 12.87 83.07 12.87L83.07 12.87Q81.67 12.87 80.80 14.33Q79.92 15.78 79.92 18.20L79.92 18.20Q79.92 20.16 80.55 21.63Q81.18 23.09 82.37 23.90Q83.56 24.70 85.24 24.70L85.24 24.70Q86.08 24.70 87.04 24.46Q88.00 24.21 88.78 23.73L88.78 23.73Q88.84 23.66 88.97 23.80Q89.09 23.93 89.02 24.04L89.02 24.04Q87.72 25.34 86.38 25.88Q85.03 26.42 83.49 26.42ZM86.33 16.66L78.70 16.73L78.66 16.06L86.33 15.88L86.33 16.66ZM95.53 16.52L95.53 16.52L95.25 16.06Q96.61 14.48 97.56 13.64Q98.50 12.80 99.17 12.47Q99.83 12.14 100.36 12.14L100.36 12.14Q101.09 12.14 101.88 12.68Q102.67 13.22 102.67 14.10L102.67 14.10Q102.67 14.83 102.23 15.31Q101.80 15.78 101.02 15.78L101.02 15.78Q100.29 15.78 99.92 15.39Q99.55 15.01 99.26 14.64Q98.96 14.27 98.40 14.27L98.40 14.27Q98.16 14.27 97.86 14.43Q97.56 14.59 97.02 15.06Q96.47 15.53 95.53 16.52ZM91.26 26L91.26 26Q91.16 26 91.16 25.79Q91.16 25.58 91.26 25.58L91.26 25.58Q92.34 25.58 92.73 25.07Q93.11 24.57 93.11 23.16L93.11 23.16L93.11 16.59Q93.11 15.50 92.87 14.99Q92.63 14.48 92.03 14.48L92.03 14.48Q91.72 14.48 91.30 14.61Q90.88 14.73 90.35 14.97L90.35 14.97Q90.21 15.04 90.14 14.83Q90.07 14.62 90.14 14.59L90.14 14.59L95.00 12.21Q95.22 12.14 95.25 12.14L95.25 12.14Q95.63 12.14 96.02 12.98Q96.41 13.82 96.41 15.39L96.41 15.39L96.41 23.16Q96.41 24.07 96.69 24.62Q96.97 25.16 97.65 25.37Q98.33 25.58 99.52 25.58L99.52 25.58Q99.66 25.58 99.66 25.79Q99.66 26 99.52 26L99.52 26Q98.58 26 97.37 25.96Q96.16 25.93 94.76 25.93L94.76 25.93Q93.78 25.93 92.87 25.96Q91.96 26 91.26 26ZM107.25 21.55L107.25 21.55L107.60 4.93L108.62 5.00L108.23 21.55Q108.20 23.41 108.99 24.50Q109.77 25.58 111.21 25.58L111.21 25.58Q111.31 25.58 111.31 25.79Q111.31 26 111.21 26L111.21 26Q110.44 26 109.63 25.96Q108.83 25.93 107.81 25.93L107.81 25.93Q106.69 25.93 105.78 25.96Q104.88 26 104.10 26L104.10 26Q104 26 104 25.79Q104 25.58 104.10 25.58L104.10 25.58Q105.54 25.58 106.38 24.50Q107.22 23.41 107.25 21.55ZM132.31 25.58L132.31 25.58Q132.38 25.58 132.38 25.79Q132.38 26 132.31 26L132.31 26Q131.41 26 130.25 25.96Q129.09 25.93 127.83 25.93L127.83 25.93Q126.54 25.93 125.42 25.96Q124.30 26 123.39 26L123.39 26Q123.28 26 123.28 25.79Q123.28 25.58 123.39 25.58L123.39 25.58Q125.03 25.58 125.51 25.13Q125.98 24.67 125.88 23.16L125.88 23.16L125.07 7.63L126.86 4.82L117.93 25.75Q117.89 25.89 117.67 25.89Q117.44 25.89 117.37 25.75L117.37 25.75L107.53 7.03Q106.20 4.54 104.35 4.54L104.35 4.54Q104.24 4.54 104.24 4.33Q104.24 4.12 104.35 4.12L104.35 4.12Q105.08 4.12 105.89 4.16Q106.69 4.19 107.25 4.19L107.25 4.19Q108.16 4.19 108.85 4.16Q109.53 4.12 109.91 4.12L109.91 4.12Q110.41 4.12 110.67 4.47Q110.93 4.82 111.52 5.94L111.52 5.94L119.36 20.64L117.61 23.80L125.81 5.00Q126.02 4.51 126.24 4.32Q126.47 4.12 126.86 4.12L126.86 4.12Q127.20 4.12 127.59 4.16Q127.97 4.19 128.50 4.19L128.50 4.19Q129.62 4.19 130.41 4.16Q131.19 4.12 131.97 4.12L131.97 4.12Q132.07 4.12 132.07 4.33Q132.07 4.54 131.97 4.54L131.97 4.54Q130.35 4.54 129.60 5.21Q128.85 5.87 128.92 7.27L128.92 7.27L129.76 23.16Q129.83 24.18 130.02 24.70Q130.22 25.23 130.74 25.41Q131.26 25.58 132.31 25.58ZM134.52 26L134.52 26Q134.41 26 134.41 25.79Q134.41 25.58 134.52 25.58L134.52 25.58Q135.60 25.58 135.99 25.07Q136.38 24.57 136.38 23.16L136.38 23.16L136.38 16.90Q136.38 15.74 136.15 15.20Q135.92 14.66 135.32 14.66L135.32 14.66Q135.08 14.66 134.75 14.76Q134.41 14.87 134.03 15.04L134.03 15.04Q133.89 15.08 133.80 14.87Q133.72 14.66 133.82 14.62L133.82 14.62L139.10 12.17Q139.18 12.14 139.21 12.14L139.21 12.14Q139.38 12.14 139.56 12.31Q139.74 12.49 139.74 12.63L139.74 12.63Q139.74 13.05 139.70 14.03Q139.66 15.01 139.66 16.83L139.66 16.83L139.66 23.16Q139.66 24.57 140.07 25.07Q140.47 25.58 141.56 25.58L141.56 25.58Q141.66 25.58 141.66 25.79Q141.66 26 141.56 26L141.56 26Q140.85 26 139.94 25.96Q139.03 25.93 138.02 25.93L138.02 25.93Q137.04 25.93 136.13 25.96Q135.22 26 134.52 26ZM137.88 8.67L137.88 8.67Q136.90 8.67 136.32 8.11Q135.75 7.55 135.75 6.54L135.75 6.54Q135.75 5.63 136.32 5.09Q136.90 4.54 137.88 4.54L137.88 4.54Q138.86 4.54 139.38 5.09Q139.91 5.63 139.91 6.54L139.91 6.54Q139.91 8.67 137.88 8.67ZM153.14 26L153.14 26Q153.04 26 153.04 25.79Q153.04 25.58 153.14 25.58L153.14 25.58Q154.23 25.58 154.61 25.07Q155.00 24.57 155.00 23.16L155.00 23.16L155.00 18.13Q155.00 16.23 154.31 15.32Q153.63 14.41 152.16 14.41L152.16 14.41Q151.11 14.41 150.01 14.94Q148.91 15.46 148.24 16.38L148.24 16.38L148.07 15.95Q149.29 14.20 150.83 13.14Q152.37 12.07 154.19 12.07L154.19 12.07Q156.15 12.07 157.22 13.29Q158.29 14.52 158.29 16.45L158.29 16.45L158.29 23.16Q158.29 24.57 158.69 25.07Q159.09 25.58 160.18 25.58L160.18 25.58Q160.28 25.58 160.28 25.79Q160.28 26 160.18 26L160.18 26Q159.48 26 158.57 25.96Q157.66 25.93 156.64 25.93L156.64 25.93Q155.66 25.93 154.75 25.96Q153.84 26 153.14 26ZM143.73 26L143.73 26Q143.62 26 143.62 25.79Q143.62 25.58 143.73 25.58L143.73 25.58Q144.81 25.58 145.20 25.07Q145.58 24.57 145.58 23.16L145.58 23.16L145.58 16.59Q145.58 15.50 145.34 14.99Q145.09 14.48 144.50 14.48L144.50 14.48Q144.18 14.48 143.76 14.61Q143.34 14.73 142.82 14.97L142.82 14.97Q142.68 15.04 142.61 14.83Q142.54 14.62 142.61 14.59L142.61 14.59L147.47 12.21Q147.68 12.14 147.72 12.14L147.72 12.14Q148.10 12.14 148.49 12.98Q148.87 13.82 148.87 15.39L148.87 15.39L148.87 23.16Q148.87 24.57 149.27 25.07Q149.68 25.58 150.76 25.58L150.76 25.58Q150.87 25.58 150.87 25.79Q150.87 26 150.76 26L150.76 26Q150.06 26 149.15 25.96Q148.24 25.93 147.23 25.93L147.23 25.93Q146.25 25.93 145.34 25.96Q144.43 26 143.73 26ZM167.39 26.45L167.39 26.45Q165.88 26.45 164.64 25.65Q163.40 24.84 162.64 23.32Q161.89 21.80 161.89 19.63L161.89 19.63Q161.89 17.49 162.66 16.04Q163.43 14.59 164.64 13.71Q165.84 12.84 167.25 12.44Q168.65 12.03 169.91 12.03L169.91 12.03Q171.17 12.03 172.25 12.35Q173.34 12.66 174.21 13.12L174.21 13.12L173.41 15.95Q172.67 14.38 171.73 13.66Q170.78 12.94 169.38 12.94L169.38 12.94Q167.59 12.94 166.55 14.19Q165.50 15.43 165.50 18.51L165.50 18.51Q165.50 20.50 165.99 21.91Q166.48 23.30 167.35 24.04Q168.23 24.77 169.31 24.77L169.31 24.77Q170.71 24.77 171.76 24.00Q172.81 23.23 173.79 22.15L173.79 22.15L174.14 22.46Q173.41 23.30 172.41 24.23Q171.41 25.16 170.17 25.81Q168.93 26.45 167.39 26.45ZM175.93 1.08L175.93 1.08L175.93 21.94Q175.93 23.13 176.15 23.62Q176.38 24.11 176.91 24.11L176.91 24.11Q177.15 24.11 177.52 24.00Q177.89 23.90 178.34 23.73L178.34 23.73Q178.45 23.66 178.55 23.85Q178.66 24.04 178.59 24.11L178.59 24.11L173.76 26.45Q173.65 26.49 173.58 26.49L173.58 26.49Q173.23 26.49 172.93 25.61Q172.64 24.74 172.64 23.13L172.64 23.13L172.64 5.38Q172.64 4.19 172.43 3.65Q172.22 3.11 171.62 3.11L171.62 3.11Q171.38 3.11 171.04 3.21Q170.71 3.32 170.33 3.49L170.33 3.49Q170.19 3.53 170.08 3.32Q169.98 3.11 170.05 3.07L170.05 3.07L175.19 0.66Q175.26 0.62 175.33 0.62L175.33 0.62Q175.51 0.62 175.72 0.78Q175.93 0.94 175.93 1.08Z" fill="#4f46e5"></path></g>
            
          </svg>