
          <svg data-logo="logo" xmlns="http://www.w3.org/2000/svg" viewBox="0 0 267 42">
            <g id="logogram" transform="translate(0, 1) rotate(0)"><path d="M0.25 20C0.25 8.9543 9.2043 0 20.25 0H46.5C57.5458 0 66.5 8.9543 66.5 20V40H20.25C9.2043 40 0.25 31.0458 0.25 20Z" fill="#4845D2"/><path d="M46.5 7.5H20.25C13.3464 7.5 7.75 13.0964 7.75 20C7.75 26.9036 13.3464 32.5 20.25 32.5H46.5C53.4036 32.5 59 26.9036 59 20C59 13.0964 53.4036 7.5 46.5 7.5Z" fill="#A5B4FC"/><path d="M20.25 26.25C23.7018 26.25 26.5 23.4518 26.5 20C26.5 16.5482 23.7018 13.75 20.25 13.75C16.7982 13.75 14 16.5482 14 20C14 23.4518 16.7982 26.25 20.25 26.25Z" fill="#000000"/><path d="M17.75 18.75C18.4404 18.75 19 18.1904 19 17.5C19 16.8096 18.4404 16.25 17.75 16.25C17.0596 16.25 16.5 16.8096 16.5 17.5C16.5 18.1904 17.0596 18.75 17.75 18.75Z" fill="#ffffff"/><path d="M47.75 26.25C51.2018 26.25 54 23.4518 54 20C54 16.5482 51.2018 13.75 47.75 13.75C44.2982 13.75 41.5 16.5482 41.5 20C41.5 23.4518 44.2982 26.25 47.75 26.25Z" fill="#000000"/><path d="M45.25 18.75C45.9404 18.75 46.5 18.1904 46.5 17.5C46.5 16.8096 45.9404 16.25 45.25 16.25C44.5596 16.25 44 16.8096 44 17.5C44 18.1904 44.5596 18.75 45.25 18.75Z" fill="#ffffff"/></g>
            <g id="logotype" transform="translate(73, 8)"><path fill="#4845D2" d="M27.18 25.52L10.90 6.45L10.90 23.43L13.70 24.48L13.70 25L7.05 25L7.05 24.48L9.85 23.43L9.85 1.72L7.40 1.02L7.40 0.50L11.07 0.50Q12.93 0.50 13.98 1.16Q15.03 1.83 15.98 2.95L15.98 2.95L27.18 16.07L27.18 2.07L24.38 1.02L24.38 0.50L31.03 0.50L31.03 1.02L28.23 2.07L28.23 25.52L27.18 25.52ZM42.75 25.52Q38.27 25.52 35.79 23.06Q33.30 20.59 33.30 16.25L33.30 16.25Q33.30 13.41 34.39 11.31Q35.47 9.21 37.41 8.09Q39.36 6.97 41.88 6.97L41.88 6.97Q44.40 6.97 46.30 7.92Q48.21 8.86 49.24 10.46Q50.28 12.05 50.28 13.97L50.28 13.97Q50.28 14.85 50.10 15.48L50.10 15.48L49.93 16.07Q48.42 16.39 46.67 16.60L46.67 16.60Q43.00 17.13 39.25 17.13L39.25 17.13Q39.25 21.18 40.37 22.92Q41.49 24.65 43.45 24.65L43.45 24.65Q44.82 24.65 45.99 24.00Q47.16 23.36 47.84 22.29Q48.53 21.22 48.53 20.10L48.53 20.10L49.40 20.10Q49.40 21.50 48.56 22.76Q47.72 24.02 46.22 24.77Q44.71 25.52 42.75 25.52L42.75 25.52ZM39.25 16.25Q41.49 16.25 42.89 16.07L42.89 16.07Q43.48 16.04 44.15 15.90L44.15 15.90Q44.19 15.72 44.33 15.13L44.33 15.13Q44.50 14.25 44.50 13.27L44.50 13.27Q44.50 10.37 43.73 9.02Q42.96 7.67 41.88 7.67L41.88 7.67Q39.25 7.67 39.25 16.25L39.25 16.25ZM61.30 25.52Q59.34 25.52 57.78 24.70Q56.23 23.88 55.35 22.55Q54.48 21.22 54.48 19.75L54.48 19.75L54.48 8.55L52.38 8.02L52.38 7.50L56.92 7.50Q60.08 7.50 60.08 10.65L60.08 10.65L60.08 19.75Q60.08 21.95 60.86 23.13Q61.65 24.30 62.70 24.30L62.70 24.30Q64.00 24.30 65.05 22.90L65.05 22.90Q65.43 22.38 65.85 21.50L65.85 21.50L65.85 8.55L63.75 8.02L63.75 7.50L73.55 7.50L73.55 8.02L71.45 8.55L71.45 25.18L71.10 25.18Q68.55 25.18 67.22 23.77L67.22 23.77Q66.62 23.14 66.38 22.38L66.38 22.38Q65.89 23.25 65.22 23.95L65.22 23.95Q63.65 25.52 61.30 25.52L61.30 25.52ZM75.65 25L75.65 24.48L77.75 23.95L77.75 8.55L75.65 8.02L75.65 7.50L78.80 7.50Q80.86 7.50 82.06 8.83L82.06 8.83Q82.51 9.35 82.83 10.12L82.83 10.12Q83.35 9.35 84.12 8.72L84.12 8.72Q85.87 7.32 88.04 7.32L88.04 7.32Q89.89 7.32 90.82 8.18Q91.75 9.04 91.75 10.65L91.75 10.65Q91.75 11.84 91.03 12.56Q90.31 13.27 89.13 13.27L89.13 13.27Q88.64 13.27 88.14 13.20L88.14 13.20L87.72 13.10L87.72 8.20Q85.94 8.20 84.47 9.60L84.47 9.60Q83.77 10.30 83.35 11.00L83.35 11.00L83.35 23.95L85.45 24.48L85.45 25L75.65 25ZM102.60 25.52Q98.26 25.52 95.79 23.06Q93.33 20.59 93.33 16.25L93.33 16.25Q93.33 11.91 95.79 9.44Q98.26 6.97 102.60 6.97L102.60 6.97Q106.94 6.97 109.41 9.44Q111.88 11.91 111.88 16.25L111.88 16.25Q111.88 20.59 109.41 23.06Q106.94 25.52 102.60 25.52L102.60 25.52ZM102.60 24.82Q104 24.82 104.96 22.86Q105.92 20.91 105.92 16.25L105.92 16.25Q105.92 11.59 104.96 9.63Q104 7.67 102.60 7.67L102.60 7.67Q101.20 7.67 100.24 9.63Q99.27 11.59 99.27 16.25L99.27 16.25Q99.27 20.91 100.24 22.86Q101.20 24.82 102.60 24.82L102.60 24.82ZM134.45 25.52L118.18 6.45L118.18 23.43L120.98 24.48L120.98 25L114.33 25L114.33 24.48L117.13 23.43L117.13 1.72L114.68 1.02L114.68 0.50L118.35 0.50Q120.21 0.50 121.26 1.16Q122.31 1.83 123.25 2.95L123.25 2.95L134.45 16.07L134.45 2.07L131.65 1.02L131.65 0.50L138.30 0.50L138.30 1.02L135.50 2.07L135.50 25.52L134.45 25.52ZM150.03 25.52Q145.55 25.52 143.06 23.06Q140.58 20.59 140.58 16.25L140.58 16.25Q140.58 13.41 141.66 11.31Q142.75 9.21 144.69 8.09Q146.63 6.97 149.15 6.97L149.15 6.97Q151.67 6.97 153.58 7.92Q155.49 8.86 156.52 10.46Q157.55 12.05 157.55 13.97L157.55 13.97Q157.55 14.85 157.38 15.48L157.38 15.48L157.20 16.07Q155.70 16.39 153.95 16.60L153.95 16.60Q150.27 17.13 146.53 17.13L146.53 17.13Q146.53 21.18 147.65 22.92Q148.77 24.65 150.73 24.65L150.73 24.65Q152.09 24.65 153.26 24.00Q154.44 23.36 155.12 22.29Q155.80 21.22 155.80 20.10L155.80 20.10L156.68 20.10Q156.68 21.50 155.84 22.76Q155.00 24.02 153.49 24.77Q151.99 25.52 150.03 25.52L150.03 25.52ZM146.53 16.25Q148.77 16.25 150.17 16.07L150.17 16.07Q150.76 16.04 151.43 15.90L151.43 15.90Q151.46 15.72 151.60 15.13L151.60 15.13Q151.78 14.25 151.78 13.27L151.78 13.27Q151.78 10.37 151.01 9.02Q150.24 7.67 149.15 7.67L149.15 7.67Q146.53 7.67 146.53 16.25L146.53 16.25ZM159.13 25L159.13 24.48L161.93 23.43L166.27 17.86L160.35 8.55L158.60 8.02L158.60 7.50L163.33 7.50Q165.00 7.50 166.06 8.25Q167.11 9.00 168.05 10.47L168.05 10.47L169.84 13.31L173.13 9.07L170.50 8.02L170.50 7.50L177.15 7.50L177.15 8.02L174.35 9.07L170.36 14.15L176.63 23.95L178.38 24.48L178.38 25L173.65 25Q171.97 25 170.92 24.27Q169.87 23.53 168.93 22.02L168.93 22.02L166.83 18.73L163.15 23.43L165.78 24.48L165.78 25L159.13 25ZM188.70 25.52Q186.39 25.52 184.69 24.68Q183.00 23.84 182.09 22.38Q181.18 20.91 181.18 19.05L181.18 19.05L181.18 8.38L178.73 8.38L178.73 7.50L181.18 7.50L181.18 5.75Q181.18 2.60 184.33 2.60L184.33 2.60L186.78 2.60L186.78 7.50L191.68 7.50L191.68 8.38L186.78 8.38L186.78 19.05Q186.78 22.27 187.44 23.46Q188.11 24.65 189.40 24.65L189.40 24.65Q190.66 24.65 191.61 23.43Q192.55 22.20 192.55 20.10L192.55 20.10L193.43 20.10Q193.43 22.69 192.13 24.11Q190.84 25.52 188.70 25.52L188.70 25.52Z"/></g>
            
          </svg>
        